PathFileType	4	(X/Y/Z)	Walk2.trc
DataRate	CameraRate	NumFrames	NumMarkers	Units	OrigDataRate	OrigDataStartFrame	OrigNumFrames
200.000000	200.000000	4	56	mm	200.000000	420	568
Frame#	Times		RASI		RACR1		RUA1		RFA1		RTH2		C7		LFA1		RTH3		RElbow		LElbowM		RCAR		RTH4		RLFC		RTB3		RMT1		RTB1		RWRU		RMT5		LACR1		RTH1		RTB4		RTB2		LTH3		LElbow		RMMAL		LWRU		RWRR		LPSI		CLAV		LTB1		T10		LBHD		RPSI		LTB4		LTB3		LLFC		LTH2		LTH4		LTB2		RBHD		LWRR		LTH1		LFHD		LMT1		RBack		LMMAL		LCAL		LLMAL		RLMAL		RToe		LMT5		RElbowM		LToe		LUA1		LCAR		RCAL
			X1	Y1	Z1	X2	Y2	Z2	X3	Y3	Z3	X4	Y4	Z4	X5	Y5	Z5	X6	Y6	Z6	X7	Y7	Z7	X8	Y8	Z8	X9	Y9	Z9	X10	Y10	Z10	X11	Y11	Z11	X12	Y12	Z12	X13	Y13	Z13	X14	Y14	Z14	X15	Y15	Z15	X16	Y16	Z16	X17	Y17	Z17	X18	Y18	Z18	X19	Y19	Z19	X20	Y20	Z20	X21	Y21	Z21	X22	Y22	Z22	X23	Y23	Z23	X24	Y24	Z24	X25	Y25	Z25	X26	Y26	Z26	X27	Y27	Z27	X28	Y28	Z28	X29	Y29	Z29	X30	Y30	Z30	X31	Y31	Z31	X32	Y32	Z32	X33	Y33	Z33	X34	Y34	Z34	X35	Y35	Z35	X36	Y36	Z36	X37	Y37	Z37	X38	Y38	Z38	X39	Y39	Z39	X40	Y40	Z40	X41	Y41	Z41	X42	Y42	Z42	X43	Y43	Z43	X44	Y44	Z44	X45	Y45	Z45	X46	Y46	Z46	X47	Y47	Z47	X48	Y48	Z48	X49	Y49	Z49	X50	Y50	Z50	X51	Y51	Z51	X52	Y52	Z52	X53	Y53	Z53	X54	Y54	Z54	X55	Y55	Z55	X56	Y56	Z56

420	2.1	475.82	949.08	414.66	468.14	1422.5	415.99	423.61	1240.8	513.33	449.54	980.88	573.69	542.58	676.58	436.29	403.12	1457.8	265.1	400.1	973.48	-43.82	505.22	562.3	440.51	382.43	1117.1	554.52	321.22	1115.2	77.261	522.32	811.97	571.43	474.28	650.78	449.2	518.23	469.2	430.92	367.82	245.09	336.39	332.21	80.493	293.09	509.02	372.2	346.66	467.31	852.71	567.87	304.67	90.683	371.88	440.01	1432.4	90.993	444.21	741.9	451.14	441.89	308.94	343.2	422.16	319.26	414.32	493.4	576.51	97.811	338.87	1114.9	0.60691	287.06	203.89	283.22	365.19	857.72	-40.857	532.75	869.32	528.32	320.77	979.32	190.57	537.54	1375.5	256.15	530.84	368.88	181.11	305.32	1147.6	254.56	430.45	1585.3	183.55	307.71	974.29	294.83	508.76	278.83	192.95	493.68	188.22	202.96	493.8	458.81	117.79	552.7	674.96	116.24	484.67	664.49	79.638	483.01	275.9	125.58	438.49	1602.6	320.98	441.92	860.32	-12.583	476.6	761.73	69.471	613.97	1610.5	193.95	577.2	36.074	255.02	330.89	1372.7	366.69	445.53	91.572	268.88	365.04	31.793	231.71	413.8	71.385	184.09	248.46	212.07	366.46	372.33	65.236	323.99	547.26	30.856	165.68	355.77	1083.9	463.88	624.75	29.254	237.76	385.43	1237.5	6.5347	429.8	807.79	-60.687	183.85	204.33	317.79
421	2.105	482.45	949.9	414.19	474.13	1422.7	416.29	428.71	1240.8	512.92	451.19	980.33	573.15	551.32	678.86	436.63	409.42	1458.2	265.18	408.92	974.78	-43.813	515.06	563.97	441.07	386.27	1117.3	553.65	328.55	1115.6	76.792	521.21	809.83	571.06	483.22	652.38	449.63	529.95	470.85	431.28	383.17	244.04	336.18	352.62	78.441	294.17	521.43	373.75	346.98	467.01	851.85	567.52	323.82	88.919	371.9	446.72	1433.3	91.287	452.51	742.83	450.91	455.84	309.43	343.05	436.13	318.18	414.36	495.88	576.44	97.264	346.05	1115.5	0.10575	303.3	201.14	282.99	375.3	858.35	-41.179	532.93	867.27	528.13	327.48	979.71	190.95	543.88	1376.2	256.4	531.52	368.78	180.43	311.7	1148.1	254.18	436.42	1586.1	183.99	314.1	974.77	295.26	508.91	278.69	192.4	494.03	188.13	202.4	494.67	458.72	117.07	556.58	674.45	115.94	488.37	664.66	79.06	483.2	275.75	124.96	444.86	1603.2	321.72	452.72	861.68	-12.097	481.41	762	69.281	620.21	1611.1	194.52	577.19	36.075	254.93	337.18	1372.9	366.51	445.61	91.725	268.77	364.22	32.487	230.96	413.79	71.341	183.98	264.48	208.76	366.35	392.24	64.975	324.36	547.21	30.759	165.53	359.35	1085	462.67	624.82	29.132	237.71	392.44	1238.3	6.3092	440.75	809.43	-60.541	199.95	199.06	317.34
422	2.11	490.25	950.77	413.53	480.31	1422.7	416.32	433.74	1240.8	512.37	453.08	979.75	572.48	560.18	680.83	437.08	415.61	1458.8	265.81	417.96	975.82	-43.874	525.43	565.94	441.65	390.13	1117.7	552.77	335.91	1115.9	76.378	520.32	808	570.79	492.44	653.47	450.28	541.3	472.23	431.77	398.37	242.96	335.77	371.75	77.817	294.14	533.93	375.36	347.26	466.82	851.11	567.33	342.86	87.088	372.2	452.8	1434.1	91.612	459.28	743.94	452.33	469.6	309.8	343.07	450.31	317.84	414.16	498.6	576.5	96.681	353.48	1116.1	-0.53925	319.67	198.5	282.92	385.76	859.37	-41.426	533.21	865.28	527.96	334.12	980.09	191.44	550.22	1376.8	256.66	532.92	368.8	179.29	317.76	1148.5	254.04	442.8	1586.9	184.52	320.35	975.26	295.47	509.19	278.5	191.85	494.38	187.89	201.78	495.58	458.65	116.36	560.12	673.63	115.74	491.73	664.75	79.017	483.34	275.69	124.37	451.25	1603.4	322.38	463.03	863.36	-11.679	486.61	762.23	69.178	626.5	1611.5	195.13	577.17	36.069	254.8	343.1	1373.4	366.17	445.38	92.528	268.59	364.68	32.289	231.14	413.8	71.327	183.88	280.86	205.03	366.27	412.39	64.649	324.36	547.2	30.67	165.41	363.08	1085.8	461.5	624.86	29.041	237.63	399.5	1239.1	6.1906	451.76	811.01	-60.215	216.3	193.57	317.21
423	2.115	497.39	951.31	412.93	486.27	1422.9	416.8	438.91	1240.5	512.25	454.79	979.23	572.04	568.62	683.26	437.25	421.91	1459.2	266.01	426.86	976.84	-44.071	535.85	567.76	442.1	393.73	1118	551.88	343.27	1116.6	76.166	519.49	806.18	570.78	501.59	654.96	450.71	552.62	473.78	432.13	413.91	242.2	335.84	391.49	76.536	292.24	546.61	376.93	347.5	466.65	850.23	567.12	362.16	85.224	372.51	459.4	1435	91.843	467.64	745.13	453.11	483.48	310.03	343.2	464.45	317.15	414.11	501.32	576.51	96.077	361.04	1116.7	-0.94066	336.17	195.58	282.94	396.23	860.08	-41.444	533.14	863.3	527.99	340.27	980.3	191.86	556.41	1377.1	256.93	533.91	368.79	178.12	324.57	1148.9	253.9	448.88	1587.4	185.04	326.71	975.73	295.87	509.65	278.34	191.08	494.71	187.85	201.23	496.68	458.45	115.64	563.63	672.93	115.62	496.82	664.8	78.284	483.52	275.62	123.84	457.71	1603.7	322.99	473.12	865.01	-11.42	492.45	762.52	68.727	633	1611.8	195.57	577.16	36.107	254.67	349.39	1373.7	366.26	445.82	92.405	269.09	364.23	32.432	231.61	413.79	71.35	183.77	297.15	201.14	366.22	432.3	64.454	324.9	547.16	30.594	165.27	366.77	1086.3	460.59	624.92	28.945	237.54	406.31	1239.9	6.0518	462.93	812.49	-60.061	233.03	187.98	316.93
